<svg xmlns="http://www.w3.org/2000/svg" viewBox="16 19 665 665">
  <g fill="#000">
    <path d="M 628.00 479.00 L 625.00 479.00 L 624.00 480.00 L 618.00 480.00 L 617.00 481.00 L 612.00 481.00 L 611.00 482.00 L 608.00 482.00 L 607.00 483.00 L 604.00 483.00 L 603.00 484.00 L 596.00 485.00 L 592.00 487.00 L 589.00 487.00 L 585.00 489.00 L 582.00 489.00 L 579.00 491.00 L 574.00 492.00 L 571.00 494.00 L 566.00 495.00 L 563.00 497.00 L 561.00 497.00 L 558.00 499.00 L 556.00 499.00 L 551.00 502.00 L 549.00 502.00 L 547.00 504.00 L 543.00 506.00 L 541.00 506.00 L 531.00 511.00 L 529.00 513.00 L 522.00 516.00 L 520.00 518.00 L 517.00 519.00 L 515.00 521.00 L 507.00 525.00 L 505.00 527.00 L 501.00 529.00 L 498.00 532.00 L 491.00 536.00 L 476.00 548.00 L 475.00 548.00 L 464.00 558.00 L 463.00 558.00 L 441.00 580.00 L 441.00 581.00 L 429.00 594.00 L 429.00 595.00 L 420.00 606.00 L 418.00 610.00 L 415.00 613.00 L 415.00 614.00 L 407.00 625.00 L 402.00 635.00 L 400.00 637.00 L 392.00 653.00 L 392.00 655.00 L 390.00 659.00 L 392.00 659.00 L 393.00 658.00 L 400.00 658.00 L 401.00 657.00 L 406.00 657.00 L 407.00 656.00 L 411.00 656.00 L 412.00 655.00 L 415.00 655.00 L 416.00 654.00 L 419.00 654.00 L 420.00 653.00 L 424.00 653.00 L 425.00 652.00 L 432.00 651.00 L 433.00 650.00 L 435.00 650.00 L 439.00 648.00 L 442.00 648.00 L 445.00 646.00 L 448.00 646.00 L 451.00 644.00 L 456.00 643.00 L 459.00 641.00 L 461.00 641.00 L 499.00 622.00 L 501.00 620.00 L 504.00 619.00 L 509.00 615.00 L 512.00 614.00 L 518.00 609.00 L 519.00 609.00 L 521.00 607.00 L 525.00 605.00 L 528.00 602.00 L 529.00 602.00 L 533.00 598.00 L 534.00 598.00 L 538.00 594.00 L 539.00 594.00 L 545.00 588.00 L 546.00 588.00 L 554.00 580.00 L 555.00 580.00 L 567.00 568.00 L 567.00 567.00 L 578.00 556.00 L 578.00 555.00 L 588.00 544.00 L 590.00 540.00 L 597.00 532.00 L 597.00 531.00 L 599.00 529.00 L 603.00 522.00 L 606.00 519.00 L 607.00 516.00 L 609.00 514.00 L 610.00 511.00 L 615.00 504.00 L 617.00 499.00 L 619.00 497.00 Z"/>
    <path d="M 653.00 295.00 L 652.00 295.00 L 649.00 298.00 L 649.00 299.00 L 639.00 310.00 L 639.00 311.00 L 624.00 326.00 L 623.00 326.00 L 617.00 332.00 L 616.00 332.00 L 606.00 341.00 L 605.00 341.00 L 599.00 346.00 L 598.00 346.00 L 593.00 350.00 L 590.00 351.00 L 585.00 355.00 L 580.00 357.00 L 578.00 359.00 L 573.00 361.00 L 571.00 363.00 L 569.00 363.00 L 557.00 369.00 L 555.00 369.00 L 552.00 371.00 L 550.00 371.00 L 549.00 372.00 L 547.00 372.00 L 546.00 373.00 L 544.00 373.00 L 543.00 374.00 L 541.00 374.00 L 537.00 376.00 L 534.00 376.00 L 530.00 378.00 L 527.00 378.00 L 526.00 379.00 L 523.00 379.00 L 522.00 380.00 L 512.00 381.00 L 511.00 382.00 L 507.00 382.00 L 506.00 383.00 L 498.00 383.00 L 497.00 384.00 L 490.00 384.00 L 489.00 385.00 L 480.00 385.00 L 479.00 386.00 L 463.00 386.00 L 462.00 387.00 L 450.00 387.00 L 449.00 388.00 L 439.00 388.00 L 438.00 389.00 L 432.00 389.00 L 431.00 390.00 L 427.00 390.00 L 426.00 391.00 L 420.00 391.00 L 419.00 392.00 L 416.00 392.00 L 415.00 393.00 L 407.00 394.00 L 406.00 395.00 L 404.00 395.00 L 403.00 396.00 L 401.00 396.00 L 400.00 397.00 L 392.00 399.00 L 389.00 401.00 L 384.00 402.00 L 364.00 412.00 L 362.00 414.00 L 359.00 415.00 L 356.00 418.00 L 353.00 419.00 L 346.00 425.00 L 345.00 425.00 L 335.00 434.00 L 334.00 434.00 L 327.00 441.00 L 326.00 441.00 L 313.00 454.00 L 313.00 455.00 L 301.00 468.00 L 301.00 469.00 L 298.00 472.00 L 298.00 473.00 L 293.00 478.00 L 293.00 479.00 L 284.00 490.00 L 284.00 491.00 L 279.00 497.00 L 278.00 500.00 L 274.00 505.00 L 273.00 508.00 L 267.00 516.00 L 261.00 528.00 L 259.00 530.00 L 256.00 537.00 L 254.00 539.00 L 238.00 571.00 L 238.00 573.00 L 235.00 578.00 L 235.00 580.00 L 233.00 582.00 L 233.00 584.00 L 227.00 596.00 L 227.00 598.00 L 225.00 601.00 L 225.00 603.00 L 222.00 608.00 L 220.00 616.00 L 218.00 619.00 L 218.00 621.00 L 217.00 622.00 L 217.00 624.00 L 215.00 628.00 L 215.00 631.00 L 229.00 638.00 L 231.00 638.00 L 236.00 641.00 L 241.00 642.00 L 244.00 644.00 L 249.00 645.00 L 252.00 647.00 L 255.00 647.00 L 256.00 648.00 L 258.00 648.00 L 259.00 649.00 L 261.00 649.00 L 265.00 651.00 L 268.00 651.00 L 272.00 653.00 L 275.00 653.00 L 276.00 654.00 L 280.00 654.00 L 281.00 655.00 L 284.00 655.00 L 285.00 656.00 L 288.00 656.00 L 289.00 657.00 L 299.00 658.00 L 300.00 659.00 L 312.00 660.00 L 313.00 661.00 L 320.00 661.00 L 321.00 662.00 L 334.00 662.00 L 335.00 663.00 L 347.00 663.00 L 348.00 664.00 L 350.00 662.00 L 350.00 660.00 L 352.00 657.00 L 352.00 655.00 L 354.00 652.00 L 354.00 650.00 L 358.00 643.00 L 358.00 641.00 L 369.00 619.00 L 371.00 617.00 L 373.00 612.00 L 375.00 610.00 L 375.00 609.00 L 381.00 601.00 L 382.00 598.00 L 384.00 596.00 L 386.00 592.00 L 389.00 589.00 L 391.00 585.00 L 394.00 582.00 L 394.00 581.00 L 397.00 578.00 L 397.00 577.00 L 400.00 574.00 L 400.00 573.00 L 413.00 559.00 L 413.00 558.00 L 442.00 529.00 L 443.00 529.00 L 448.00 524.00 L 449.00 524.00 L 458.00 516.00 L 459.00 516.00 L 470.00 507.00 L 474.00 505.00 L 477.00 502.00 L 480.00 501.00 L 483.00 498.00 L 486.00 497.00 L 488.00 495.00 L 494.00 492.00 L 496.00 490.00 L 499.00 489.00 L 501.00 487.00 L 508.00 484.00 L 510.00 482.00 L 536.00 469.00 L 538.00 469.00 L 552.00 462.00 L 554.00 462.00 L 560.00 459.00 L 565.00 458.00 L 568.00 456.00 L 570.00 456.00 L 571.00 455.00 L 573.00 455.00 L 577.00 453.00 L 580.00 453.00 L 581.00 452.00 L 583.00 452.00 L 587.00 450.00 L 590.00 450.00 L 594.00 448.00 L 597.00 448.00 L 598.00 447.00 L 601.00 447.00 L 602.00 446.00 L 605.00 446.00 L 606.00 445.00 L 610.00 445.00 L 611.00 444.00 L 616.00 444.00 L 617.00 443.00 L 620.00 443.00 L 621.00 442.00 L 627.00 442.00 L 628.00 441.00 L 632.00 441.00 L 633.00 440.00 L 638.00 440.00 L 639.00 439.00 L 642.00 439.00 L 644.00 437.00 L 644.00 434.00 L 646.00 430.00 L 646.00 427.00 L 647.00 426.00 L 647.00 423.00 L 648.00 422.00 L 648.00 419.00 L 649.00 418.00 L 649.00 415.00 L 650.00 414.00 L 650.00 411.00 L 651.00 410.00 L 651.00 406.00 L 652.00 405.00 L 652.00 401.00 L 653.00 400.00 L 653.00 394.00 L 654.00 393.00 L 654.00 387.00 L 655.00 386.00 L 655.00 378.00 L 656.00 377.00 L 656.00 363.00 L 657.00 362.00 L 657.00 336.00 L 656.00 335.00 L 656.00 322.00 L 655.00 321.00 L 655.00 310.00 L 654.00 309.00 L 654.00 303.00 L 653.00 302.00 Z"/>
    <path d="M 586.00 152.00 L 585.00 151.00 L 584.00 152.00 L 583.00 155.00 L 581.00 157.00 L 577.00 165.00 L 572.00 171.00 L 572.00 172.00 L 567.00 178.00 L 567.00 179.00 L 560.00 187.00 L 560.00 188.00 L 555.00 193.00 L 555.00 194.00 L 535.00 214.00 L 534.00 214.00 L 526.00 221.00 L 525.00 221.00 L 522.00 224.00 L 518.00 226.00 L 512.00 231.00 L 507.00 233.00 L 502.00 237.00 L 494.00 241.00 L 492.00 241.00 L 478.00 248.00 L 476.00 248.00 L 475.00 249.00 L 473.00 249.00 L 472.00 250.00 L 470.00 250.00 L 469.00 251.00 L 467.00 251.00 L 463.00 253.00 L 460.00 253.00 L 459.00 254.00 L 456.00 254.00 L 455.00 255.00 L 451.00 255.00 L 450.00 256.00 L 446.00 256.00 L 445.00 257.00 L 434.00 258.00 L 433.00 259.00 L 426.00 259.00 L 425.00 260.00 L 413.00 260.00 L 412.00 261.00 L 380.00 261.00 L 379.00 262.00 L 362.00 262.00 L 361.00 263.00 L 353.00 263.00 L 352.00 264.00 L 347.00 264.00 L 346.00 265.00 L 341.00 265.00 L 340.00 266.00 L 336.00 266.00 L 335.00 267.00 L 328.00 268.00 L 327.00 269.00 L 325.00 269.00 L 321.00 271.00 L 318.00 271.00 L 315.00 273.00 L 310.00 274.00 L 307.00 276.00 L 305.00 276.00 L 303.00 278.00 L 301.00 278.00 L 289.00 284.00 L 284.00 288.00 L 276.00 292.00 L 272.00 296.00 L 269.00 297.00 L 259.00 306.00 L 258.00 306.00 L 235.00 329.00 L 235.00 330.00 L 230.00 335.00 L 230.00 336.00 L 226.00 340.00 L 226.00 341.00 L 222.00 345.00 L 222.00 346.00 L 216.00 353.00 L 215.00 356.00 L 212.00 359.00 L 212.00 360.00 L 200.00 377.00 L 199.00 380.00 L 194.00 387.00 L 192.00 392.00 L 188.00 397.00 L 185.00 404.00 L 183.00 406.00 L 183.00 408.00 L 181.00 410.00 L 178.00 417.00 L 176.00 419.00 L 167.00 437.00 L 167.00 439.00 L 164.00 443.00 L 164.00 445.00 L 159.00 454.00 L 159.00 456.00 L 153.00 467.00 L 153.00 469.00 L 146.00 483.00 L 146.00 485.00 L 143.00 490.00 L 142.00 495.00 L 138.00 502.00 L 138.00 504.00 L 136.00 507.00 L 136.00 509.00 L 133.00 514.00 L 133.00 516.00 L 131.00 519.00 L 131.00 521.00 L 128.00 526.00 L 127.00 531.00 L 124.00 536.00 L 124.00 538.00 L 120.00 546.00 L 118.00 554.00 L 123.00 559.00 L 123.00 560.00 L 154.00 590.00 L 155.00 590.00 L 166.00 600.00 L 167.00 600.00 L 178.00 609.00 L 183.00 611.00 L 186.00 605.00 L 186.00 603.00 L 188.00 600.00 L 188.00 598.00 L 191.00 592.00 L 191.00 590.00 L 196.00 580.00 L 196.00 578.00 L 204.00 562.00 L 204.00 560.00 L 206.00 558.00 L 206.00 556.00 L 213.00 543.00 L 213.00 541.00 L 216.00 537.00 L 216.00 535.00 L 219.00 529.00 L 221.00 527.00 L 230.00 509.00 L 232.00 507.00 L 233.00 504.00 L 235.00 502.00 L 236.00 499.00 L 238.00 497.00 L 239.00 494.00 L 245.00 486.00 L 248.00 480.00 L 251.00 477.00 L 251.00 476.00 L 253.00 474.00 L 257.00 467.00 L 260.00 464.00 L 260.00 463.00 L 264.00 459.00 L 264.00 458.00 L 267.00 455.00 L 267.00 454.00 L 270.00 451.00 L 270.00 450.00 L 281.00 438.00 L 281.00 437.00 L 302.00 416.00 L 302.00 415.00 L 304.00 413.00 L 305.00 413.00 L 312.00 406.00 L 316.00 404.00 L 321.00 399.00 L 322.00 399.00 L 333.00 390.00 L 334.00 390.00 L 339.00 386.00 L 342.00 385.00 L 347.00 381.00 L 349.00 381.00 L 351.00 379.00 L 354.00 378.00 L 356.00 376.00 L 364.00 372.00 L 366.00 372.00 L 371.00 369.00 L 373.00 369.00 L 378.00 366.00 L 383.00 365.00 L 386.00 363.00 L 392.00 362.00 L 393.00 361.00 L 395.00 361.00 L 399.00 359.00 L 407.00 358.00 L 408.00 357.00 L 412.00 357.00 L 413.00 356.00 L 417.00 356.00 L 418.00 355.00 L 423.00 355.00 L 424.00 354.00 L 438.00 353.00 L 439.00 352.00 L 453.00 352.00 L 454.00 351.00 L 476.00 351.00 L 477.00 350.00 L 497.00 349.00 L 498.00 348.00 L 502.00 348.00 L 503.00 347.00 L 507.00 347.00 L 508.00 346.00 L 517.00 345.00 L 521.00 343.00 L 524.00 343.00 L 525.00 342.00 L 527.00 342.00 L 528.00 341.00 L 530.00 341.00 L 531.00 340.00 L 539.00 338.00 L 542.00 336.00 L 544.00 336.00 L 560.00 328.00 L 562.00 326.00 L 566.00 325.00 L 571.00 321.00 L 574.00 320.00 L 576.00 318.00 L 580.00 316.00 L 583.00 313.00 L 584.00 313.00 L 588.00 309.00 L 589.00 309.00 L 593.00 305.00 L 594.00 305.00 L 600.00 299.00 L 601.00 299.00 L 623.00 275.00 L 625.00 271.00 L 633.00 261.00 L 634.00 258.00 L 639.00 251.00 L 639.00 245.00 L 638.00 244.00 L 637.00 239.00 L 635.00 236.00 L 635.00 234.00 L 633.00 231.00 L 633.00 229.00 L 631.00 227.00 L 631.00 225.00 L 629.00 222.00 L 629.00 220.00 L 626.00 216.00 L 626.00 214.00 L 622.00 209.00 L 622.00 207.00 L 617.00 197.00 L 615.00 195.00 L 613.00 190.00 L 611.00 188.00 L 610.00 185.00 L 606.00 180.00 L 603.00 174.00 L 599.00 170.00 L 597.00 166.00 L 594.00 163.00 L 594.00 162.00 L 591.00 159.00 L 591.00 158.00 L 586.00 153.00 Z"/>
    <path d="M 557.00 121.00 L 534.00 101.00 L 533.00 101.00 L 526.00 95.00 L 522.00 93.00 L 519.00 90.00 L 518.00 90.00 L 510.00 84.00 L 507.00 83.00 L 505.00 81.00 L 503.00 81.00 L 498.00 77.00 L 495.00 76.00 L 493.00 74.00 L 491.00 74.00 L 489.00 72.00 L 487.00 72.00 L 472.00 64.00 L 470.00 64.00 L 469.00 63.00 L 467.00 63.00 L 466.00 62.00 L 464.00 62.00 L 460.00 60.00 L 458.00 64.00 L 458.00 68.00 L 457.00 69.00 L 456.00 75.00 L 453.00 81.00 L 452.00 86.00 L 446.00 98.00 L 444.00 100.00 L 442.00 105.00 L 439.00 108.00 L 437.00 112.00 L 433.00 116.00 L 433.00 117.00 L 417.00 133.00 L 414.00 134.00 L 407.00 140.00 L 397.00 145.00 L 395.00 145.00 L 390.00 148.00 L 387.00 148.00 L 386.00 149.00 L 384.00 149.00 L 380.00 151.00 L 377.00 151.00 L 373.00 153.00 L 369.00 153.00 L 368.00 154.00 L 360.00 154.00 L 359.00 155.00 L 326.00 155.00 L 325.00 154.00 L 312.00 154.00 L 311.00 153.00 L 278.00 153.00 L 277.00 154.00 L 269.00 154.00 L 268.00 155.00 L 265.00 155.00 L 264.00 156.00 L 254.00 157.00 L 253.00 158.00 L 247.00 159.00 L 244.00 161.00 L 236.00 163.00 L 233.00 165.00 L 231.00 165.00 L 219.00 171.00 L 217.00 173.00 L 212.00 175.00 L 207.00 179.00 L 204.00 180.00 L 201.00 183.00 L 200.00 183.00 L 197.00 186.00 L 196.00 186.00 L 193.00 189.00 L 192.00 189.00 L 188.00 193.00 L 187.00 193.00 L 179.00 201.00 L 178.00 201.00 L 162.00 218.00 L 162.00 219.00 L 158.00 223.00 L 158.00 224.00 L 152.00 231.00 L 150.00 235.00 L 147.00 238.00 L 147.00 239.00 L 139.00 250.00 L 137.00 255.00 L 133.00 260.00 L 112.00 302.00 L 112.00 304.00 L 109.00 309.00 L 109.00 311.00 L 105.00 319.00 L 105.00 321.00 L 102.00 327.00 L 102.00 329.00 L 99.00 334.00 L 99.00 336.00 L 97.00 339.00 L 97.00 341.00 L 95.00 344.00 L 95.00 346.00 L 93.00 349.00 L 93.00 351.00 L 89.00 358.00 L 89.00 360.00 L 82.00 374.00 L 82.00 376.00 L 65.00 410.00 L 63.00 412.00 L 57.00 424.00 L 52.00 431.00 L 52.00 436.00 L 54.00 439.00 L 55.00 445.00 L 57.00 448.00 L 57.00 450.00 L 59.00 453.00 L 59.00 455.00 L 61.00 458.00 L 61.00 460.00 L 64.00 465.00 L 65.00 470.00 L 70.00 479.00 L 70.00 481.00 L 77.00 495.00 L 79.00 497.00 L 82.00 504.00 L 84.00 506.00 L 86.00 511.00 L 90.00 516.00 L 91.00 519.00 L 92.00 519.00 L 92.00 518.00 L 94.00 516.00 L 94.00 514.00 L 99.00 504.00 L 99.00 502.00 L 101.00 499.00 L 101.00 497.00 L 103.00 494.00 L 103.00 492.00 L 107.00 485.00 L 107.00 483.00 L 110.00 478.00 L 110.00 476.00 L 113.00 471.00 L 113.00 469.00 L 116.00 464.00 L 116.00 462.00 L 119.00 457.00 L 119.00 455.00 L 122.00 451.00 L 122.00 449.00 L 125.00 444.00 L 125.00 442.00 L 138.00 417.00 L 138.00 415.00 L 141.00 411.00 L 141.00 409.00 L 143.00 405.00 L 145.00 403.00 L 152.00 388.00 L 154.00 386.00 L 157.00 379.00 L 159.00 377.00 L 165.00 365.00 L 167.00 363.00 L 167.00 362.00 L 173.00 354.00 L 174.00 351.00 L 177.00 348.00 L 177.00 347.00 L 179.00 345.00 L 179.00 344.00 L 181.00 342.00 L 185.00 335.00 L 189.00 331.00 L 191.00 327.00 L 195.00 323.00 L 195.00 322.00 L 198.00 319.00 L 198.00 318.00 L 212.00 303.00 L 212.00 302.00 L 231.00 283.00 L 232.00 283.00 L 239.00 276.00 L 240.00 276.00 L 244.00 272.00 L 245.00 272.00 L 249.00 268.00 L 250.00 268.00 L 253.00 265.00 L 257.00 263.00 L 260.00 260.00 L 266.00 257.00 L 268.00 255.00 L 273.00 253.00 L 275.00 251.00 L 287.00 245.00 L 289.00 245.00 L 298.00 240.00 L 300.00 240.00 L 303.00 238.00 L 306.00 238.00 L 307.00 237.00 L 309.00 237.00 L 310.00 236.00 L 312.00 236.00 L 316.00 234.00 L 319.00 234.00 L 323.00 232.00 L 331.00 231.00 L 332.00 230.00 L 336.00 230.00 L 337.00 229.00 L 342.00 229.00 L 343.00 228.00 L 348.00 228.00 L 349.00 227.00 L 359.00 227.00 L 360.00 226.00 L 372.00 226.00 L 373.00 225.00 L 409.00 225.00 L 410.00 224.00 L 429.00 223.00 L 430.00 222.00 L 436.00 222.00 L 437.00 221.00 L 441.00 221.00 L 442.00 220.00 L 445.00 220.00 L 446.00 219.00 L 453.00 218.00 L 454.00 217.00 L 459.00 216.00 L 462.00 214.00 L 467.00 213.00 L 470.00 211.00 L 472.00 211.00 L 488.00 203.00 L 493.00 199.00 L 496.00 198.00 L 499.00 195.00 L 500.00 195.00 L 503.00 192.00 L 504.00 192.00 L 508.00 188.00 L 509.00 188.00 L 515.00 182.00 L 516.00 182.00 L 525.00 173.00 L 525.00 172.00 L 530.00 167.00 L 530.00 166.00 L 534.00 162.00 L 534.00 161.00 L 540.00 154.00 L 541.00 151.00 L 545.00 146.00 L 546.00 143.00 L 548.00 141.00 L 551.00 135.00 L 551.00 133.00 L 553.00 131.00 L 556.00 125.00 Z"/>
    <path d="M 420.00 47.00 L 419.00 46.00 L 409.00 45.00 L 408.00 44.00 L 403.00 44.00 L 402.00 43.00 L 396.00 43.00 L 395.00 42.00 L 388.00 42.00 L 387.00 41.00 L 378.00 41.00 L 377.00 40.00 L 364.00 40.00 L 363.00 39.00 L 331.00 39.00 L 330.00 40.00 L 319.00 40.00 L 318.00 41.00 L 302.00 42.00 L 301.00 43.00 L 296.00 43.00 L 295.00 44.00 L 290.00 44.00 L 289.00 45.00 L 280.00 46.00 L 279.00 47.00 L 276.00 47.00 L 275.00 48.00 L 272.00 48.00 L 271.00 49.00 L 264.00 50.00 L 260.00 52.00 L 257.00 52.00 L 256.00 53.00 L 254.00 53.00 L 253.00 54.00 L 251.00 54.00 L 250.00 55.00 L 242.00 57.00 L 234.00 61.00 L 229.00 62.00 L 222.00 66.00 L 220.00 66.00 L 200.00 76.00 L 198.00 78.00 L 188.00 83.00 L 186.00 85.00 L 185.00 85.00 L 183.00 87.00 L 182.00 87.00 L 180.00 89.00 L 179.00 89.00 L 177.00 91.00 L 176.00 91.00 L 174.00 93.00 L 167.00 97.00 L 154.00 108.00 L 153.00 108.00 L 147.00 114.00 L 146.00 114.00 L 131.00 129.00 L 130.00 129.00 L 128.00 131.00 L 128.00 132.00 L 116.00 144.00 L 116.00 145.00 L 111.00 150.00 L 111.00 151.00 L 104.00 159.00 L 102.00 163.00 L 96.00 170.00 L 96.00 171.00 L 90.00 179.00 L 89.00 182.00 L 87.00 184.00 L 86.00 187.00 L 84.00 189.00 L 83.00 192.00 L 81.00 194.00 L 79.00 199.00 L 77.00 201.00 L 70.00 215.00 L 70.00 217.00 L 66.00 224.00 L 66.00 226.00 L 63.00 231.00 L 62.00 236.00 L 60.00 239.00 L 60.00 241.00 L 59.00 242.00 L 59.00 244.00 L 58.00 245.00 L 58.00 247.00 L 57.00 248.00 L 57.00 250.00 L 56.00 251.00 L 56.00 253.00 L 55.00 254.00 L 55.00 256.00 L 54.00 257.00 L 54.00 259.00 L 52.00 263.00 L 52.00 266.00 L 51.00 267.00 L 51.00 270.00 L 50.00 271.00 L 50.00 274.00 L 49.00 275.00 L 49.00 278.00 L 48.00 279.00 L 48.00 283.00 L 47.00 284.00 L 47.00 288.00 L 46.00 289.00 L 45.00 298.00 L 44.00 299.00 L 44.00 305.00 L 43.00 306.00 L 43.00 312.00 L 42.00 313.00 L 42.00 323.00 L 41.00 324.00 L 41.00 340.00 L 40.00 341.00 L 40.00 363.00 L 41.00 364.00 L 41.00 376.00 L 42.00 377.00 L 44.00 374.00 L 45.00 369.00 L 53.00 353.00 L 53.00 351.00 L 55.00 348.00 L 55.00 346.00 L 57.00 343.00 L 57.00 341.00 L 60.00 336.00 L 60.00 334.00 L 63.00 329.00 L 63.00 327.00 L 69.00 315.00 L 69.00 313.00 L 74.00 303.00 L 74.00 301.00 L 77.00 296.00 L 77.00 294.00 L 80.00 289.00 L 80.00 287.00 L 103.00 241.00 L 105.00 239.00 L 106.00 236.00 L 110.00 231.00 L 111.00 228.00 L 113.00 226.00 L 113.00 225.00 L 115.00 223.00 L 115.00 222.00 L 117.00 220.00 L 117.00 219.00 L 119.00 217.00 L 123.00 210.00 L 127.00 206.00 L 127.00 205.00 L 130.00 202.00 L 130.00 201.00 L 143.00 187.00 L 143.00 186.00 L 167.00 163.00 L 168.00 163.00 L 173.00 158.00 L 177.00 156.00 L 180.00 153.00 L 187.00 149.00 L 190.00 146.00 L 202.00 140.00 L 204.00 138.00 L 208.00 137.00 L 212.00 134.00 L 214.00 134.00 L 217.00 132.00 L 219.00 132.00 L 224.00 129.00 L 226.00 129.00 L 227.00 128.00 L 229.00 128.00 L 230.00 127.00 L 232.00 127.00 L 233.00 126.00 L 235.00 126.00 L 236.00 125.00 L 238.00 125.00 L 239.00 124.00 L 241.00 124.00 L 245.00 122.00 L 248.00 122.00 L 249.00 121.00 L 253.00 121.00 L 254.00 120.00 L 258.00 120.00 L 259.00 119.00 L 265.00 119.00 L 266.00 118.00 L 271.00 118.00 L 272.00 117.00 L 310.00 117.00 L 311.00 118.00 L 322.00 118.00 L 323.00 119.00 L 340.00 119.00 L 341.00 120.00 L 352.00 120.00 L 353.00 119.00 L 360.00 119.00 L 361.00 118.00 L 365.00 118.00 L 366.00 117.00 L 369.00 117.00 L 370.00 116.00 L 375.00 115.00 L 378.00 113.00 L 380.00 113.00 L 384.00 110.00 L 389.00 108.00 L 392.00 105.00 L 393.00 105.00 L 405.00 93.00 L 406.00 90.00 L 408.00 88.00 L 414.00 76.00 L 414.00 73.00 L 417.00 67.00 L 417.00 64.00 L 418.00 63.00 L 418.00 57.00 L 419.00 56.00 L 419.00 53.00 L 420.00 52.00 Z"/>
  </g>
</svg>
